<mxfile host="app.diagrams.net" agent="Mozilla/5.0 (X11; Linux x86_64) AppleWebKit/537.36 (KHTML, like Gecko) Chrome/136.0.0.0 Safari/537.36" version="27.0.6">
  <diagram name="Page-1" id="CGISMWXR32__mPCSlxEB">
    <mxGraphModel dx="876" dy="584" grid="1" gridSize="10" guides="1" tooltips="1" connect="1" arrows="1" fold="1" page="1" pageScale="1" pageWidth="1169" pageHeight="827" math="0" shadow="0">
      <root>
        <mxCell id="0" />
        <mxCell id="1" parent="0" />
        <mxCell id="s6ble4NVM5SMg5A113QU-1" value="Controller" style="rounded=0;whiteSpace=wrap;html=1;" vertex="1" parent="1">
          <mxGeometry x="220" y="80" width="120" height="60" as="geometry" />
        </mxCell>
        <mxCell id="s6ble4NVM5SMg5A113QU-2" value="Service" style="rounded=0;whiteSpace=wrap;html=1;" vertex="1" parent="1">
          <mxGeometry x="380" y="80" width="120" height="60" as="geometry" />
        </mxCell>
        <mxCell id="s6ble4NVM5SMg5A113QU-3" value="Repository" style="rounded=0;whiteSpace=wrap;html=1;" vertex="1" parent="1">
          <mxGeometry x="540" y="80" width="120" height="60" as="geometry" />
        </mxCell>
        <mxCell id="s6ble4NVM5SMg5A113QU-4" value="" style="endArrow=none;html=1;rounded=0;entryX=0.5;entryY=1;entryDx=0;entryDy=0;" edge="1" parent="1" source="s6ble4NVM5SMg5A113QU-9">
          <mxGeometry width="50" height="50" relative="1" as="geometry">
            <mxPoint x="120" y="850" as="sourcePoint" />
            <mxPoint x="120" y="140" as="targetPoint" />
          </mxGeometry>
        </mxCell>
        <mxCell id="s6ble4NVM5SMg5A113QU-5" value="" style="endArrow=none;html=1;rounded=0;entryX=0.5;entryY=1;entryDx=0;entryDy=0;" edge="1" parent="1" source="s6ble4NVM5SMg5A113QU-13">
          <mxGeometry width="50" height="50" relative="1" as="geometry">
            <mxPoint x="280" y="850" as="sourcePoint" />
            <mxPoint x="280" y="140" as="targetPoint" />
          </mxGeometry>
        </mxCell>
        <mxCell id="s6ble4NVM5SMg5A113QU-6" value="" style="endArrow=none;html=1;rounded=0;entryX=0.5;entryY=1;entryDx=0;entryDy=0;" edge="1" parent="1" source="s6ble4NVM5SMg5A113QU-20">
          <mxGeometry width="50" height="50" relative="1" as="geometry">
            <mxPoint x="439.5" y="850" as="sourcePoint" />
            <mxPoint x="439.5" y="140" as="targetPoint" />
          </mxGeometry>
        </mxCell>
        <mxCell id="s6ble4NVM5SMg5A113QU-7" value="" style="endArrow=none;html=1;rounded=0;entryX=0.5;entryY=1;entryDx=0;entryDy=0;" edge="1" parent="1" source="s6ble4NVM5SMg5A113QU-22">
          <mxGeometry width="50" height="50" relative="1" as="geometry">
            <mxPoint x="599.5" y="851" as="sourcePoint" />
            <mxPoint x="599.5" y="141" as="targetPoint" />
          </mxGeometry>
        </mxCell>
        <mxCell id="s6ble4NVM5SMg5A113QU-8" value="" style="endArrow=none;html=1;rounded=0;entryX=0.5;entryY=1;entryDx=0;entryDy=0;" edge="1" parent="1" target="s6ble4NVM5SMg5A113QU-9" source="s6ble4NVM5SMg5A113QU-74">
          <mxGeometry width="50" height="50" relative="1" as="geometry">
            <mxPoint x="120" y="570" as="sourcePoint" />
            <mxPoint x="120" y="140" as="targetPoint" />
          </mxGeometry>
        </mxCell>
        <mxCell id="s6ble4NVM5SMg5A113QU-9" value="" style="rounded=0;whiteSpace=wrap;html=1;" vertex="1" parent="1">
          <mxGeometry x="115" y="180" width="10" height="100" as="geometry" />
        </mxCell>
        <mxCell id="s6ble4NVM5SMg5A113QU-10" value="" style="endArrow=classic;html=1;rounded=0;" edge="1" parent="1">
          <mxGeometry width="50" height="50" relative="1" as="geometry">
            <mxPoint x="125" y="449.5" as="sourcePoint" />
            <mxPoint x="270" y="449.5" as="targetPoint" />
          </mxGeometry>
        </mxCell>
        <mxCell id="s6ble4NVM5SMg5A113QU-11" value="POST /bookings" style="edgeLabel;html=1;align=center;verticalAlign=middle;resizable=0;points=[];" vertex="1" connectable="0" parent="s6ble4NVM5SMg5A113QU-10">
          <mxGeometry x="-0.2448" y="2" relative="1" as="geometry">
            <mxPoint x="16" y="-8" as="offset" />
          </mxGeometry>
        </mxCell>
        <mxCell id="s6ble4NVM5SMg5A113QU-12" value="" style="endArrow=none;html=1;rounded=0;entryX=0.5;entryY=1;entryDx=0;entryDy=0;" edge="1" parent="1" target="s6ble4NVM5SMg5A113QU-13" source="s6ble4NVM5SMg5A113QU-76">
          <mxGeometry width="50" height="50" relative="1" as="geometry">
            <mxPoint x="280" y="580" as="sourcePoint" />
            <mxPoint x="280" y="140" as="targetPoint" />
          </mxGeometry>
        </mxCell>
        <mxCell id="s6ble4NVM5SMg5A113QU-13" value="" style="rounded=0;whiteSpace=wrap;html=1;" vertex="1" parent="1">
          <mxGeometry x="275" y="180" width="10" height="100" as="geometry" />
        </mxCell>
        <mxCell id="s6ble4NVM5SMg5A113QU-14" value="" style="endArrow=classic;html=1;rounded=0;exitX=1.3;exitY=0.128;exitDx=0;exitDy=0;exitPerimeter=0;entryX=-0.4;entryY=0.128;entryDx=0;entryDy=0;entryPerimeter=0;" edge="1" parent="1">
          <mxGeometry width="50" height="50" relative="1" as="geometry">
            <mxPoint x="285" y="449.5" as="sourcePoint" />
            <mxPoint x="428" y="449.5" as="targetPoint" />
          </mxGeometry>
        </mxCell>
        <mxCell id="s6ble4NVM5SMg5A113QU-15" value="validateBooking(data)" style="edgeLabel;html=1;align=center;verticalAlign=middle;resizable=0;points=[];" vertex="1" connectable="0" parent="s6ble4NVM5SMg5A113QU-14">
          <mxGeometry x="0.049" y="-2" relative="1" as="geometry">
            <mxPoint x="-2" y="-13" as="offset" />
          </mxGeometry>
        </mxCell>
        <mxCell id="s6ble4NVM5SMg5A113QU-16" value="" style="endArrow=classic;html=1;rounded=0;exitX=1.3;exitY=0.128;exitDx=0;exitDy=0;exitPerimeter=0;entryX=-0.4;entryY=0.128;entryDx=0;entryDy=0;entryPerimeter=0;" edge="1" parent="1">
          <mxGeometry width="50" height="50" relative="1" as="geometry">
            <mxPoint x="445" y="449.5" as="sourcePoint" />
            <mxPoint x="588" y="449.5" as="targetPoint" />
          </mxGeometry>
        </mxCell>
        <mxCell id="s6ble4NVM5SMg5A113QU-17" value="getDestinationData" style="edgeLabel;html=1;align=center;verticalAlign=middle;resizable=0;points=[];" vertex="1" connectable="0" parent="s6ble4NVM5SMg5A113QU-16">
          <mxGeometry x="-0.5664" y="4" relative="1" as="geometry">
            <mxPoint x="39" y="-6" as="offset" />
          </mxGeometry>
        </mxCell>
        <mxCell id="s6ble4NVM5SMg5A113QU-19" value="" style="endArrow=none;html=1;rounded=0;entryX=0.5;entryY=1;entryDx=0;entryDy=0;" edge="1" parent="1" target="s6ble4NVM5SMg5A113QU-20" source="s6ble4NVM5SMg5A113QU-78">
          <mxGeometry width="50" height="50" relative="1" as="geometry">
            <mxPoint x="440" y="590" as="sourcePoint" />
            <mxPoint x="439.5" y="140" as="targetPoint" />
          </mxGeometry>
        </mxCell>
        <mxCell id="s6ble4NVM5SMg5A113QU-20" value="" style="rounded=0;whiteSpace=wrap;html=1;" vertex="1" parent="1">
          <mxGeometry x="435" y="184" width="10" height="96" as="geometry" />
        </mxCell>
        <mxCell id="s6ble4NVM5SMg5A113QU-21" value="" style="endArrow=none;html=1;rounded=0;entryX=0.5;entryY=1;entryDx=0;entryDy=0;" edge="1" parent="1" target="s6ble4NVM5SMg5A113QU-22" source="s6ble4NVM5SMg5A113QU-80">
          <mxGeometry width="50" height="50" relative="1" as="geometry">
            <mxPoint x="600" y="590" as="sourcePoint" />
            <mxPoint x="599.5" y="141" as="targetPoint" />
          </mxGeometry>
        </mxCell>
        <mxCell id="s6ble4NVM5SMg5A113QU-22" value="" style="rounded=0;whiteSpace=wrap;html=1;" vertex="1" parent="1">
          <mxGeometry x="595" y="184" width="10" height="96" as="geometry" />
        </mxCell>
        <mxCell id="s6ble4NVM5SMg5A113QU-23" value="" style="endArrow=classic;html=1;rounded=0;exitX=1.3;exitY=0.128;exitDx=0;exitDy=0;exitPerimeter=0;" edge="1" parent="1">
          <mxGeometry width="50" height="50" relative="1" as="geometry">
            <mxPoint x="593" y="620" as="sourcePoint" />
            <mxPoint x="448" y="620" as="targetPoint" />
          </mxGeometry>
        </mxCell>
        <mxCell id="s6ble4NVM5SMg5A113QU-24" value="bookingSaved" style="edgeLabel;html=1;align=center;verticalAlign=middle;resizable=0;points=[];" vertex="1" connectable="0" parent="s6ble4NVM5SMg5A113QU-23">
          <mxGeometry x="0.4207" y="2" relative="1" as="geometry">
            <mxPoint x="28" y="-12" as="offset" />
          </mxGeometry>
        </mxCell>
        <mxCell id="s6ble4NVM5SMg5A113QU-25" value="" style="endArrow=classic;html=1;rounded=0;exitX=1.3;exitY=0.128;exitDx=0;exitDy=0;exitPerimeter=0;" edge="1" parent="1">
          <mxGeometry width="50" height="50" relative="1" as="geometry">
            <mxPoint x="433" y="620" as="sourcePoint" />
            <mxPoint x="288" y="620" as="targetPoint" />
          </mxGeometry>
        </mxCell>
        <mxCell id="s6ble4NVM5SMg5A113QU-26" value="bookingCreatedResponse" style="edgeLabel;html=1;align=center;verticalAlign=middle;resizable=0;points=[];" vertex="1" connectable="0" parent="s6ble4NVM5SMg5A113QU-25">
          <mxGeometry x="0.0069" y="-3" relative="1" as="geometry">
            <mxPoint y="-7" as="offset" />
          </mxGeometry>
        </mxCell>
        <mxCell id="s6ble4NVM5SMg5A113QU-27" value="" style="endArrow=classic;html=1;rounded=0;exitX=1.3;exitY=0.128;exitDx=0;exitDy=0;exitPerimeter=0;" edge="1" parent="1">
          <mxGeometry width="50" height="50" relative="1" as="geometry">
            <mxPoint x="275" y="620" as="sourcePoint" />
            <mxPoint x="130" y="620" as="targetPoint" />
          </mxGeometry>
        </mxCell>
        <mxCell id="s6ble4NVM5SMg5A113QU-28" value="201 Created" style="edgeLabel;html=1;align=center;verticalAlign=middle;resizable=0;points=[];" vertex="1" connectable="0" parent="s6ble4NVM5SMg5A113QU-27">
          <mxGeometry x="-0.0759" y="-3" relative="1" as="geometry">
            <mxPoint x="-10" y="-6" as="offset" />
          </mxGeometry>
        </mxCell>
        <mxCell id="s6ble4NVM5SMg5A113QU-29" value="&lt;ul data-end=&quot;2145&quot; data-start=&quot;1936&quot;&gt;&lt;li data-end=&quot;2145&quot; data-start=&quot;2068&quot;&gt;&lt;p data-end=&quot;2145&quot; data-start=&quot;2070&quot;&gt;&lt;strong data-end=&quot;2145&quot; data-start=&quot;2101&quot;&gt;Sequence Diagram - Booking Creation Flow&lt;/strong&gt;&lt;/p&gt;&lt;br/&gt;&lt;/li&gt;&lt;br/&gt;&lt;/ul&gt;" style="text;html=1;align=center;verticalAlign=middle;whiteSpace=wrap;rounded=0;" vertex="1" parent="1">
          <mxGeometry x="140" y="50" width="480" as="geometry" />
        </mxCell>
        <mxCell id="s6ble4NVM5SMg5A113QU-30" value="Actor" style="shape=umlActor;verticalLabelPosition=bottom;verticalAlign=top;html=1;outlineConnect=0;" vertex="1" parent="1">
          <mxGeometry x="105" y="50" width="30" height="60" as="geometry" />
        </mxCell>
        <mxCell id="s6ble4NVM5SMg5A113QU-31" value="" style="endArrow=classic;html=1;rounded=0;" edge="1" parent="1">
          <mxGeometry width="50" height="50" relative="1" as="geometry">
            <mxPoint x="125" y="220" as="sourcePoint" />
            <mxPoint x="265" y="220" as="targetPoint" />
          </mxGeometry>
        </mxCell>
        <mxCell id="s6ble4NVM5SMg5A113QU-32" value="POST /Register" style="edgeLabel;html=1;align=center;verticalAlign=middle;resizable=0;points=[];" vertex="1" connectable="0" parent="s6ble4NVM5SMg5A113QU-31">
          <mxGeometry x="-0.2448" y="2" relative="1" as="geometry">
            <mxPoint x="16" y="-8" as="offset" />
          </mxGeometry>
        </mxCell>
        <mxCell id="s6ble4NVM5SMg5A113QU-35" value="" style="endArrow=classic;html=1;rounded=0;exitX=1.3;exitY=0.128;exitDx=0;exitDy=0;exitPerimeter=0;entryX=-0.4;entryY=0.128;entryDx=0;entryDy=0;entryPerimeter=0;" edge="1" parent="1">
          <mxGeometry width="50" height="50" relative="1" as="geometry">
            <mxPoint x="285" y="220" as="sourcePoint" />
            <mxPoint x="428" y="220" as="targetPoint" />
          </mxGeometry>
        </mxCell>
        <mxCell id="s6ble4NVM5SMg5A113QU-36" value="hashingPassword" style="edgeLabel;html=1;align=center;verticalAlign=middle;resizable=0;points=[];" vertex="1" connectable="0" parent="s6ble4NVM5SMg5A113QU-35">
          <mxGeometry x="0.049" y="-2" relative="1" as="geometry">
            <mxPoint x="-2" y="-13" as="offset" />
          </mxGeometry>
        </mxCell>
        <mxCell id="s6ble4NVM5SMg5A113QU-38" value="" style="endArrow=classic;html=1;rounded=0;exitX=1.3;exitY=0.128;exitDx=0;exitDy=0;exitPerimeter=0;entryX=-0.4;entryY=0.128;entryDx=0;entryDy=0;entryPerimeter=0;" edge="1" parent="1">
          <mxGeometry width="50" height="50" relative="1" as="geometry">
            <mxPoint x="445" y="220" as="sourcePoint" />
            <mxPoint x="588" y="220" as="targetPoint" />
          </mxGeometry>
        </mxCell>
        <mxCell id="s6ble4NVM5SMg5A113QU-39" value="SaveUser" style="edgeLabel;html=1;align=center;verticalAlign=middle;resizable=0;points=[];" vertex="1" connectable="0" parent="s6ble4NVM5SMg5A113QU-38">
          <mxGeometry x="-0.5664" y="4" relative="1" as="geometry">
            <mxPoint x="39" y="-6" as="offset" />
          </mxGeometry>
        </mxCell>
        <mxCell id="s6ble4NVM5SMg5A113QU-40" value="" style="endArrow=classic;html=1;rounded=0;exitX=1.3;exitY=0.128;exitDx=0;exitDy=0;exitPerimeter=0;" edge="1" parent="1">
          <mxGeometry width="50" height="50" relative="1" as="geometry">
            <mxPoint x="595" y="263" as="sourcePoint" />
            <mxPoint x="450" y="263" as="targetPoint" />
          </mxGeometry>
        </mxCell>
        <mxCell id="s6ble4NVM5SMg5A113QU-41" value="userSaved" style="edgeLabel;html=1;align=center;verticalAlign=middle;resizable=0;points=[];" vertex="1" connectable="0" parent="s6ble4NVM5SMg5A113QU-40">
          <mxGeometry x="0.4207" y="2" relative="1" as="geometry">
            <mxPoint x="28" y="-12" as="offset" />
          </mxGeometry>
        </mxCell>
        <mxCell id="s6ble4NVM5SMg5A113QU-42" value="" style="endArrow=classic;html=1;rounded=0;exitX=1.3;exitY=0.128;exitDx=0;exitDy=0;exitPerimeter=0;" edge="1" parent="1">
          <mxGeometry width="50" height="50" relative="1" as="geometry">
            <mxPoint x="435" y="262" as="sourcePoint" />
            <mxPoint x="290" y="262" as="targetPoint" />
          </mxGeometry>
        </mxCell>
        <mxCell id="s6ble4NVM5SMg5A113QU-43" value="userCreatedResponse" style="edgeLabel;html=1;align=center;verticalAlign=middle;resizable=0;points=[];" vertex="1" connectable="0" parent="s6ble4NVM5SMg5A113QU-42">
          <mxGeometry x="0.0069" y="-3" relative="1" as="geometry">
            <mxPoint y="-7" as="offset" />
          </mxGeometry>
        </mxCell>
        <mxCell id="s6ble4NVM5SMg5A113QU-44" value="" style="endArrow=classic;html=1;rounded=0;exitX=1.3;exitY=0.128;exitDx=0;exitDy=0;exitPerimeter=0;" edge="1" parent="1">
          <mxGeometry width="50" height="50" relative="1" as="geometry">
            <mxPoint x="275" y="260" as="sourcePoint" />
            <mxPoint x="130" y="260" as="targetPoint" />
          </mxGeometry>
        </mxCell>
        <mxCell id="s6ble4NVM5SMg5A113QU-45" value="201 Created" style="edgeLabel;html=1;align=center;verticalAlign=middle;resizable=0;points=[];" vertex="1" connectable="0" parent="s6ble4NVM5SMg5A113QU-44">
          <mxGeometry x="-0.0759" y="-3" relative="1" as="geometry">
            <mxPoint x="-10" y="-6" as="offset" />
          </mxGeometry>
        </mxCell>
        <mxCell id="s6ble4NVM5SMg5A113QU-46" value="" style="endArrow=classic;html=1;rounded=0;" edge="1" parent="1">
          <mxGeometry width="50" height="50" relative="1" as="geometry">
            <mxPoint x="125" y="325" as="sourcePoint" />
            <mxPoint x="270" y="325" as="targetPoint" />
          </mxGeometry>
        </mxCell>
        <mxCell id="s6ble4NVM5SMg5A113QU-47" value="POST /login" style="edgeLabel;html=1;align=center;verticalAlign=middle;resizable=0;points=[];" vertex="1" connectable="0" parent="s6ble4NVM5SMg5A113QU-46">
          <mxGeometry x="-0.2448" y="2" relative="1" as="geometry">
            <mxPoint x="16" y="-8" as="offset" />
          </mxGeometry>
        </mxCell>
        <mxCell id="s6ble4NVM5SMg5A113QU-48" value="" style="endArrow=classic;html=1;rounded=0;exitX=1.3;exitY=0.128;exitDx=0;exitDy=0;exitPerimeter=0;entryX=-0.4;entryY=0.128;entryDx=0;entryDy=0;entryPerimeter=0;" edge="1" parent="1">
          <mxGeometry width="50" height="50" relative="1" as="geometry">
            <mxPoint x="285" y="326.5" as="sourcePoint" />
            <mxPoint x="428" y="326.5" as="targetPoint" />
          </mxGeometry>
        </mxCell>
        <mxCell id="s6ble4NVM5SMg5A113QU-49" value="validatePassword(data)" style="edgeLabel;html=1;align=center;verticalAlign=middle;resizable=0;points=[];" vertex="1" connectable="0" parent="s6ble4NVM5SMg5A113QU-48">
          <mxGeometry x="0.049" y="-2" relative="1" as="geometry">
            <mxPoint x="-2" y="-13" as="offset" />
          </mxGeometry>
        </mxCell>
        <mxCell id="s6ble4NVM5SMg5A113QU-50" value="" style="endArrow=classic;html=1;rounded=0;exitX=1.3;exitY=0.128;exitDx=0;exitDy=0;exitPerimeter=0;entryX=-0.4;entryY=0.128;entryDx=0;entryDy=0;entryPerimeter=0;" edge="1" parent="1">
          <mxGeometry width="50" height="50" relative="1" as="geometry">
            <mxPoint x="445" y="327" as="sourcePoint" />
            <mxPoint x="588" y="327" as="targetPoint" />
          </mxGeometry>
        </mxCell>
        <mxCell id="s6ble4NVM5SMg5A113QU-51" value="getPassword" style="edgeLabel;html=1;align=center;verticalAlign=middle;resizable=0;points=[];" vertex="1" connectable="0" parent="s6ble4NVM5SMg5A113QU-50">
          <mxGeometry x="-0.5664" y="4" relative="1" as="geometry">
            <mxPoint x="39" y="-6" as="offset" />
          </mxGeometry>
        </mxCell>
        <mxCell id="s6ble4NVM5SMg5A113QU-52" value="" style="endArrow=classic;html=1;rounded=0;exitX=1.3;exitY=0.128;exitDx=0;exitDy=0;exitPerimeter=0;" edge="1" parent="1">
          <mxGeometry width="50" height="50" relative="1" as="geometry">
            <mxPoint x="595" y="363.5" as="sourcePoint" />
            <mxPoint x="450" y="363.5" as="targetPoint" />
          </mxGeometry>
        </mxCell>
        <mxCell id="s6ble4NVM5SMg5A113QU-53" value="passwordData" style="edgeLabel;html=1;align=center;verticalAlign=middle;resizable=0;points=[];" vertex="1" connectable="0" parent="s6ble4NVM5SMg5A113QU-52">
          <mxGeometry x="0.4207" y="2" relative="1" as="geometry">
            <mxPoint x="28" y="-12" as="offset" />
          </mxGeometry>
        </mxCell>
        <mxCell id="s6ble4NVM5SMg5A113QU-54" value="" style="endArrow=classic;html=1;rounded=0;exitX=1.3;exitY=0.128;exitDx=0;exitDy=0;exitPerimeter=0;" edge="1" parent="1">
          <mxGeometry width="50" height="50" relative="1" as="geometry">
            <mxPoint x="434" y="364" as="sourcePoint" />
            <mxPoint x="289" y="364" as="targetPoint" />
          </mxGeometry>
        </mxCell>
        <mxCell id="s6ble4NVM5SMg5A113QU-55" value="generatedTokenResponse" style="edgeLabel;html=1;align=center;verticalAlign=middle;resizable=0;points=[];" vertex="1" connectable="0" parent="s6ble4NVM5SMg5A113QU-54">
          <mxGeometry x="0.0069" y="-3" relative="1" as="geometry">
            <mxPoint y="-7" as="offset" />
          </mxGeometry>
        </mxCell>
        <mxCell id="s6ble4NVM5SMg5A113QU-56" value="" style="endArrow=classic;html=1;rounded=0;exitX=1.3;exitY=0.128;exitDx=0;exitDy=0;exitPerimeter=0;" edge="1" parent="1">
          <mxGeometry width="50" height="50" relative="1" as="geometry">
            <mxPoint x="275" y="365" as="sourcePoint" />
            <mxPoint x="130" y="365" as="targetPoint" />
          </mxGeometry>
        </mxCell>
        <mxCell id="s6ble4NVM5SMg5A113QU-57" value="200 JWTToken" style="edgeLabel;html=1;align=center;verticalAlign=middle;resizable=0;points=[];" vertex="1" connectable="0" parent="s6ble4NVM5SMg5A113QU-56">
          <mxGeometry x="-0.0759" y="-3" relative="1" as="geometry">
            <mxPoint x="-10" y="-6" as="offset" />
          </mxGeometry>
        </mxCell>
        <mxCell id="s6ble4NVM5SMg5A113QU-60" value="" style="endArrow=classic;html=1;rounded=0;exitX=1.3;exitY=0.128;exitDx=0;exitDy=0;exitPerimeter=0;" edge="1" parent="1">
          <mxGeometry width="50" height="50" relative="1" as="geometry">
            <mxPoint x="595" y="489.5" as="sourcePoint" />
            <mxPoint x="450" y="489.5" as="targetPoint" />
          </mxGeometry>
        </mxCell>
        <mxCell id="s6ble4NVM5SMg5A113QU-61" value="destinationData" style="edgeLabel;html=1;align=center;verticalAlign=middle;resizable=0;points=[];" vertex="1" connectable="0" parent="s6ble4NVM5SMg5A113QU-60">
          <mxGeometry x="0.4207" y="2" relative="1" as="geometry">
            <mxPoint x="28" y="-12" as="offset" />
          </mxGeometry>
        </mxCell>
        <mxCell id="s6ble4NVM5SMg5A113QU-64" value="" style="endArrow=classic;html=1;rounded=0;exitX=1.3;exitY=0.128;exitDx=0;exitDy=0;exitPerimeter=0;" edge="1" parent="1">
          <mxGeometry width="50" height="50" relative="1" as="geometry">
            <mxPoint x="433" y="489.5" as="sourcePoint" />
            <mxPoint x="288" y="489.5" as="targetPoint" />
          </mxGeometry>
        </mxCell>
        <mxCell id="s6ble4NVM5SMg5A113QU-65" value="createPayment" style="edgeLabel;html=1;align=center;verticalAlign=middle;resizable=0;points=[];" vertex="1" connectable="0" parent="s6ble4NVM5SMg5A113QU-64">
          <mxGeometry x="0.0069" y="-3" relative="1" as="geometry">
            <mxPoint y="-7" as="offset" />
          </mxGeometry>
        </mxCell>
        <mxCell id="s6ble4NVM5SMg5A113QU-66" value="" style="endArrow=classic;html=1;rounded=0;exitX=1.3;exitY=0.128;exitDx=0;exitDy=0;exitPerimeter=0;" edge="1" parent="1">
          <mxGeometry width="50" height="50" relative="1" as="geometry">
            <mxPoint x="275" y="489.5" as="sourcePoint" />
            <mxPoint x="130" y="489.5" as="targetPoint" />
          </mxGeometry>
        </mxCell>
        <mxCell id="s6ble4NVM5SMg5A113QU-67" value="200 paymentData" style="edgeLabel;html=1;align=center;verticalAlign=middle;resizable=0;points=[];" vertex="1" connectable="0" parent="s6ble4NVM5SMg5A113QU-66">
          <mxGeometry x="-0.0759" y="-3" relative="1" as="geometry">
            <mxPoint x="-10" y="-6" as="offset" />
          </mxGeometry>
        </mxCell>
        <mxCell id="s6ble4NVM5SMg5A113QU-68" value="" style="endArrow=classic;html=1;rounded=0;" edge="1" parent="1">
          <mxGeometry width="50" height="50" relative="1" as="geometry">
            <mxPoint x="125" y="570" as="sourcePoint" />
            <mxPoint x="270" y="570" as="targetPoint" />
          </mxGeometry>
        </mxCell>
        <mxCell id="s6ble4NVM5SMg5A113QU-69" value="POST /payment" style="edgeLabel;html=1;align=center;verticalAlign=middle;resizable=0;points=[];" vertex="1" connectable="0" parent="s6ble4NVM5SMg5A113QU-68">
          <mxGeometry x="-0.2448" y="2" relative="1" as="geometry">
            <mxPoint x="16" y="-8" as="offset" />
          </mxGeometry>
        </mxCell>
        <mxCell id="s6ble4NVM5SMg5A113QU-70" value="" style="endArrow=classic;html=1;rounded=0;exitX=1.3;exitY=0.128;exitDx=0;exitDy=0;exitPerimeter=0;entryX=-0.4;entryY=0.128;entryDx=0;entryDy=0;entryPerimeter=0;" edge="1" parent="1">
          <mxGeometry width="50" height="50" relative="1" as="geometry">
            <mxPoint x="285" y="570" as="sourcePoint" />
            <mxPoint x="428" y="570" as="targetPoint" />
          </mxGeometry>
        </mxCell>
        <mxCell id="s6ble4NVM5SMg5A113QU-71" value="validatePayment(data)" style="edgeLabel;html=1;align=center;verticalAlign=middle;resizable=0;points=[];" vertex="1" connectable="0" parent="s6ble4NVM5SMg5A113QU-70">
          <mxGeometry x="0.049" y="-2" relative="1" as="geometry">
            <mxPoint x="-2" y="-13" as="offset" />
          </mxGeometry>
        </mxCell>
        <mxCell id="s6ble4NVM5SMg5A113QU-72" value="" style="endArrow=classic;html=1;rounded=0;exitX=1.3;exitY=0.128;exitDx=0;exitDy=0;exitPerimeter=0;entryX=-0.4;entryY=0.128;entryDx=0;entryDy=0;entryPerimeter=0;" edge="1" parent="1">
          <mxGeometry width="50" height="50" relative="1" as="geometry">
            <mxPoint x="445" y="570" as="sourcePoint" />
            <mxPoint x="588" y="570" as="targetPoint" />
          </mxGeometry>
        </mxCell>
        <mxCell id="s6ble4NVM5SMg5A113QU-73" value="saveBooking" style="edgeLabel;html=1;align=center;verticalAlign=middle;resizable=0;points=[];" vertex="1" connectable="0" parent="s6ble4NVM5SMg5A113QU-72">
          <mxGeometry x="-0.5664" y="4" relative="1" as="geometry">
            <mxPoint x="39" y="-6" as="offset" />
          </mxGeometry>
        </mxCell>
        <mxCell id="s6ble4NVM5SMg5A113QU-75" value="" style="endArrow=none;html=1;rounded=0;entryX=0.5;entryY=1;entryDx=0;entryDy=0;" edge="1" parent="1" source="s6ble4NVM5SMg5A113QU-82" target="s6ble4NVM5SMg5A113QU-74">
          <mxGeometry width="50" height="50" relative="1" as="geometry">
            <mxPoint x="120" y="570" as="sourcePoint" />
            <mxPoint x="120" y="280" as="targetPoint" />
          </mxGeometry>
        </mxCell>
        <mxCell id="s6ble4NVM5SMg5A113QU-74" value="" style="rounded=0;whiteSpace=wrap;html=1;" vertex="1" parent="1">
          <mxGeometry x="115" y="300" width="10" height="100" as="geometry" />
        </mxCell>
        <mxCell id="s6ble4NVM5SMg5A113QU-77" value="" style="endArrow=none;html=1;rounded=0;entryX=0.5;entryY=1;entryDx=0;entryDy=0;" edge="1" parent="1" source="s6ble4NVM5SMg5A113QU-84" target="s6ble4NVM5SMg5A113QU-76">
          <mxGeometry width="50" height="50" relative="1" as="geometry">
            <mxPoint x="280" y="580" as="sourcePoint" />
            <mxPoint x="280" y="280" as="targetPoint" />
          </mxGeometry>
        </mxCell>
        <mxCell id="s6ble4NVM5SMg5A113QU-76" value="" style="rounded=0;whiteSpace=wrap;html=1;" vertex="1" parent="1">
          <mxGeometry x="275" y="300" width="10" height="100" as="geometry" />
        </mxCell>
        <mxCell id="s6ble4NVM5SMg5A113QU-79" value="" style="endArrow=none;html=1;rounded=0;entryX=0.5;entryY=1;entryDx=0;entryDy=0;" edge="1" parent="1" source="s6ble4NVM5SMg5A113QU-86" target="s6ble4NVM5SMg5A113QU-78">
          <mxGeometry width="50" height="50" relative="1" as="geometry">
            <mxPoint x="440" y="590" as="sourcePoint" />
            <mxPoint x="440" y="280" as="targetPoint" />
          </mxGeometry>
        </mxCell>
        <mxCell id="s6ble4NVM5SMg5A113QU-78" value="" style="rounded=0;whiteSpace=wrap;html=1;" vertex="1" parent="1">
          <mxGeometry x="435" y="300" width="10" height="96" as="geometry" />
        </mxCell>
        <mxCell id="s6ble4NVM5SMg5A113QU-81" value="" style="endArrow=none;html=1;rounded=0;entryX=0.5;entryY=1;entryDx=0;entryDy=0;" edge="1" parent="1" target="s6ble4NVM5SMg5A113QU-80">
          <mxGeometry width="50" height="50" relative="1" as="geometry">
            <mxPoint x="600" y="710" as="sourcePoint" />
            <mxPoint x="600" y="280" as="targetPoint" />
          </mxGeometry>
        </mxCell>
        <mxCell id="s6ble4NVM5SMg5A113QU-80" value="" style="rounded=0;whiteSpace=wrap;html=1;" vertex="1" parent="1">
          <mxGeometry x="595" y="300" width="10" height="96" as="geometry" />
        </mxCell>
        <mxCell id="s6ble4NVM5SMg5A113QU-83" value="" style="endArrow=none;html=1;rounded=0;entryX=0.5;entryY=1;entryDx=0;entryDy=0;" edge="1" parent="1" target="s6ble4NVM5SMg5A113QU-82">
          <mxGeometry width="50" height="50" relative="1" as="geometry">
            <mxPoint x="120" y="710" as="sourcePoint" />
            <mxPoint x="120" y="400" as="targetPoint" />
          </mxGeometry>
        </mxCell>
        <mxCell id="s6ble4NVM5SMg5A113QU-82" value="" style="rounded=0;whiteSpace=wrap;html=1;" vertex="1" parent="1">
          <mxGeometry x="115" y="420" width="10" height="100" as="geometry" />
        </mxCell>
        <mxCell id="s6ble4NVM5SMg5A113QU-85" value="" style="endArrow=none;html=1;rounded=0;entryX=0.5;entryY=1;entryDx=0;entryDy=0;" edge="1" parent="1" target="s6ble4NVM5SMg5A113QU-84">
          <mxGeometry width="50" height="50" relative="1" as="geometry">
            <mxPoint x="280" y="710" as="sourcePoint" />
            <mxPoint x="280" y="400" as="targetPoint" />
          </mxGeometry>
        </mxCell>
        <mxCell id="s6ble4NVM5SMg5A113QU-84" value="" style="rounded=0;whiteSpace=wrap;html=1;" vertex="1" parent="1">
          <mxGeometry x="275" y="420" width="10" height="100" as="geometry" />
        </mxCell>
        <mxCell id="s6ble4NVM5SMg5A113QU-88" value="" style="endArrow=none;html=1;rounded=0;entryX=0.5;entryY=1;entryDx=0;entryDy=0;" edge="1" parent="1" target="s6ble4NVM5SMg5A113QU-86">
          <mxGeometry width="50" height="50" relative="1" as="geometry">
            <mxPoint x="440" y="710" as="sourcePoint" />
            <mxPoint x="440" y="396" as="targetPoint" />
          </mxGeometry>
        </mxCell>
        <mxCell id="s6ble4NVM5SMg5A113QU-86" value="" style="rounded=0;whiteSpace=wrap;html=1;" vertex="1" parent="1">
          <mxGeometry x="435" y="420" width="10" height="96" as="geometry" />
        </mxCell>
        <mxCell id="s6ble4NVM5SMg5A113QU-89" value="" style="rounded=0;whiteSpace=wrap;html=1;" vertex="1" parent="1">
          <mxGeometry x="595" y="420" width="10" height="96" as="geometry" />
        </mxCell>
        <mxCell id="s6ble4NVM5SMg5A113QU-90" value="" style="rounded=0;whiteSpace=wrap;html=1;" vertex="1" parent="1">
          <mxGeometry x="115" y="540" width="10" height="100" as="geometry" />
        </mxCell>
        <mxCell id="s6ble4NVM5SMg5A113QU-91" value="" style="rounded=0;whiteSpace=wrap;html=1;" vertex="1" parent="1">
          <mxGeometry x="275" y="540" width="10" height="100" as="geometry" />
        </mxCell>
        <mxCell id="s6ble4NVM5SMg5A113QU-92" value="" style="rounded=0;whiteSpace=wrap;html=1;" vertex="1" parent="1">
          <mxGeometry x="435" y="540" width="10" height="96" as="geometry" />
        </mxCell>
        <mxCell id="s6ble4NVM5SMg5A113QU-93" value="" style="rounded=0;whiteSpace=wrap;html=1;" vertex="1" parent="1">
          <mxGeometry x="595" y="540" width="10" height="96" as="geometry" />
        </mxCell>
      </root>
    </mxGraphModel>
  </diagram>
</mxfile>
